<svg version="1.1" id="Layer_1" xmlns="http://www.w3.org/2000/svg" xmlns:xlink="http://www.w3.org/1999/xlink" x="0px" y="0px"
	 width="100%" viewBox="0 0 1024 1024" enable-background="new 0 0 1024 1024" xml:space="preserve">
<path fill="#000000" opacity="1.000000" stroke="none" 
	d="
M731.555725,643.439819 
	C726.248230,655.573486 719.998474,666.765808 713.007629,677.544006 
	C710.498047,681.413269 710.196838,681.409973 706.402649,680.226562 
	C755.656250,600.936096 762.603760,518.731628 721.341064,434.293732 
	C696.291809,383.034210 655.877869,346.889404 603.011658,322.320740 
	C604.949280,325.627380 606.241272,327.678406 607.385071,329.808990 
	C615.292847,344.538239 616.020752,360.282654 611.968506,375.927277 
	C609.694946,384.704926 610.361389,392.846008 611.736633,401.374573 
	C614.966614,421.405365 617.346985,441.504333 618.505737,461.810730 
	C619.686157,482.496826 619.427673,503.114563 618.052185,523.709167 
	C616.743530,543.303406 613.680969,562.711914 608.979675,581.817078 
	C608.555054,583.542542 607.713135,585.165344 606.615173,586.761108 
	C610.476135,561.289246 611.586121,535.765320 609.314148,509.831146 
	C608.616028,511.155151 607.893372,512.466858 607.223450,513.804932 
	C597.943604,532.340820 584.117188,546.208252 565.151184,554.801575 
	C561.318665,556.538025 557.190796,557.705566 553.113770,557.894714 
	C546.330017,558.209412 540.920593,555.165894 537.419678,549.107788 
	C530.929932,537.877686 528.236511,525.658691 527.908142,512.822876 
	C527.835815,509.995178 527.897522,507.164062 527.017639,503.957642 
	C522.464783,512.900940 517.911926,521.844177 513.359070,530.787415 
	C512.849426,530.826233 512.339783,530.865051 511.830170,530.903809 
	C507.243378,521.848450 502.656586,512.793091 497.417297,502.449493 
	C497.102234,509.713074 496.995178,515.612976 496.535065,521.483337 
	C495.818787,530.622742 493.237091,539.094666 489.113129,547.179382 
	C484.847351,555.542236 477.653442,559.107361 468.465607,557.242737 
	C456.658508,554.846619 446.929901,548.483887 438.176727,540.588074 
	C428.429657,531.795715 420.838135,521.354492 415.202057,507.828461 
	C415.223572,534.867371 413.531677,560.543213 419.402496,586.680969 
	C417.082611,584.553528 415.196289,579.122498 413.984558,573.203613 
	C407.376221,540.924866 405.047729,508.283936 406.034302,475.408020 
	C406.638123,455.285675 408.179962,435.234406 411.312012,415.297913 
	C412.703888,406.438049 413.980988,397.559814 415.607452,388.736755 
	C416.281250,385.081421 414.394135,381.894379 413.598907,378.546661 
	C408.148346,355.600891 410.381287,334.550873 428.020752,317.057098 
	C428.335114,316.745331 428.484863,316.267578 428.275787,315.454987 
	C354.201813,342.615265 302.341553,392.580322 277.350861,467.807526 
	C252.433792,542.813171 264.019318,613.868408 306.703522,680.440918 
	C303.853912,682.006531 301.983429,681.149170 300.402985,678.760132 
	C286.976685,658.464844 276.889771,636.597168 269.953674,613.305786 
	C265.771759,599.262817 262.788055,584.920532 261.485809,570.312317 
	C259.619202,549.373230 259.620087,528.457703 262.751465,507.583862 
	C269.458862,462.871948 287.028503,422.937469 315.752655,388.098816 
	C347.868103,349.146942 387.997742,322.114197 436.583801,307.573822 
	C471.355988,297.167542 506.717133,294.854919 542.315796,300.004120 
	C588.510071,306.685944 629.671692,325.482391 665.327332,355.809937 
	C700.148743,385.427948 725.021851,421.928558 739.790405,465.184235 
	C750.638672,496.957489 753.867920,529.651855 751.569336,563.119690 
	C749.652710,591.027527 742.758972,617.535095 731.555725,643.439819 
M553.735840,375.954803 
	C563.041321,374.278198 572.696899,375.064850 581.781128,371.730804 
	C591.408264,368.197510 596.930725,361.540100 598.798218,351.425934 
	C600.754333,340.831879 597.699402,331.021545 594.950439,321.095734 
	C594.442932,319.263123 593.232788,318.300507 591.607300,317.713928 
	C578.302856,312.912659 564.756958,308.960907 550.859497,306.275208 
	C529.960815,302.236572 508.865662,302.441498 487.720642,303.207367 
	C469.783356,303.857025 452.566345,308.259064 435.332184,312.664398 
	C433.888580,313.033386 432.873749,313.772614 432.225830,315.473816 
	C428.958191,324.053986 426.186859,332.818115 425.684967,341.966858 
	C425.059357,353.369965 428.447754,364.899048 439.598267,370.086639 
	C446.215271,373.165070 453.231110,373.994507 460.380585,374.799316 
	C479.405334,376.940948 498.606934,378.897736 512.595154,394.868378 
	C517.933105,388.921570 524.065125,384.261200 531.681396,381.639038 
	C538.620300,379.250061 545.668518,377.393982 553.735840,375.954803 
M476.486389,482.955688 
	C479.645721,482.793793 482.812103,482.715576 485.962677,482.449829 
	C490.367310,482.078247 495.051392,478.433594 498.901794,480.817474 
	C502.722168,483.182678 503.404510,488.731720 505.589905,492.817139 
	C507.808746,496.965088 509.877411,501.193420 512.655640,506.651276 
	C516.347229,499.228546 519.415649,493.190430 522.365723,487.095032 
	C526.358276,478.845520 524.335632,479.236359 534.017944,481.309998 
	C544.897217,483.639954 555.737244,483.876404 566.527954,480.234009 
	C586.067627,473.638458 597.397583,439.059906 584.332520,421.131866 
	C581.589050,417.367249 578.689392,413.806244 573.624573,412.026947 
	C574.725586,415.212402 575.841736,417.944550 576.616272,420.770355 
	C579.610718,431.695801 578.075195,441.920990 571.293091,451.102692 
	C561.838074,463.902832 544.559509,463.860321 535.156372,451.052826 
	C533.318359,448.549377 531.820251,445.796356 529.987976,442.875580 
	C523.443604,448.883911 518.831787,456.264008 512.385498,463.009521 
	C506.782623,456.164337 501.737457,449.280457 495.253387,443.041809 
	C493.585449,445.818573 492.452118,447.829407 491.202576,449.765259 
	C483.125916,462.278229 466.666168,464.326355 456.374268,453.916443 
	C450.936005,448.415863 447.909454,441.709045 447.547821,433.813599 
	C447.200073,426.221527 448.170624,418.919128 452.288483,411.291229 
	C445.793640,415.074768 442.186340,418.597931 439.580963,423.273743 
	C425.002960,449.436493 444.629028,482.031403 476.486389,482.955688 
M459.678741,405.773254 
	C479.665344,419.000092 497.013306,435.149170 512.610413,454.394073 
	C523.721008,440.274628 536.056824,428.215607 549.552551,417.361359 
	C563.019958,406.529907 577.663391,397.514252 593.453369,390.251556 
	C587.974976,382.160919 582.848633,380.305573 574.800903,383.140198 
	C551.612427,391.307770 532.062622,404.581207 517.083252,424.298309 
	C515.752747,426.049591 514.849609,428.437805 512.055115,429.063568 
	C511.289124,428.225037 510.440613,427.444122 509.764923,426.534790 
	C494.071075,405.414246 473.635040,390.893341 448.728058,382.555481 
	C442.019348,380.309631 435.690765,383.082794 432.313812,390.243042 
	C441.260376,395.181915 450.705414,399.365662 459.678741,405.773254 
M539.610168,490.200500 
	C536.961792,489.830261 537.430420,491.284668 537.957764,492.912964 
	C541.700684,504.469513 546.859985,515.203186 556.144836,523.421631 
	C568.248108,534.134705 589.498230,537.353394 599.480591,517.244629 
	C600.737366,514.712952 602.212585,512.286133 603.392822,509.721497 
	C604.030151,508.336578 605.372925,506.910187 604.112976,505.194977 
	C602.733826,504.929443 601.830750,505.826172 600.836365,506.358063 
	C592.291992,510.928223 584.272461,510.107849 576.530457,504.356873 
	C571.911682,500.925873 568.252686,496.652435 564.912048,492.069580 
	C563.536743,490.182831 562.156189,488.665955 559.585449,489.478760 
	C553.231995,491.487427 546.795959,491.253235 539.610168,490.200500 
M487.447113,491.628387 
	C485.874908,489.192078 483.549225,490.526001 481.549072,490.543518 
	C479.236969,490.563751 476.600311,491.736359 474.672546,490.973419 
	C465.209167,487.228485 459.964417,491.631653 454.414978,498.927582 
	C447.372498,508.186432 435.669037,513.683228 422.167755,505.374390 
	C421.819641,505.160156 421.267029,505.278198 420.297913,505.199890 
	C423.292694,513.704346 426.959015,521.477966 433.656372,527.187622 
	C441.602081,533.961487 457.051147,533.086304 466.149719,525.842834 
	C477.098389,517.126465 483.490295,505.503265 487.447113,491.628387 
M585.649902,477.174622 
	C580.832397,482.048767 574.668091,484.966827 568.221252,488.269073 
	C572.113220,493.843567 576.070435,498.216064 581.465881,501.131073 
	C589.932495,505.705353 596.965210,504.409485 603.333191,497.184784 
	C606.665039,493.404694 608.553101,488.864258 608.646545,483.987366 
	C608.934692,468.941376 607.272583,454.009033 605.234985,438.977417 
	C602.139404,453.299622 597.351868,466.615906 585.649902,477.174622 
M451.852325,485.719910 
	C432.060944,475.983734 423.867065,458.369720 419.706940,437.984833 
	C419.284698,440.255676 419.126312,442.382690 418.966644,444.509644 
	C418.083557,456.273102 416.806641,468.024506 416.444550,479.803986 
	C416.167480,488.815247 418.977417,496.785828 427.418030,501.866394 
	C437.727661,508.072021 451.348083,498.224091 456.198181,488.277191 
	C455.429199,486.786804 453.796844,486.679474 451.852325,485.719910 
M495.698181,388.809540 
	C485.556000,383.949158 474.828583,381.425964 463.546906,380.746796 
	C482.931641,390.398712 497.939514,405.381104 512.672119,421.134583 
	C527.409668,405.029663 542.471436,390.575745 561.481079,380.900665 
	C542.711304,382.568481 525.069214,386.727356 512.233826,403.288757 
	C508.072693,396.641357 502.694153,392.310852 495.698181,388.809540 
M478.370941,520.806396 
	C470.270386,531.859009 459.676300,538.424500 444.778778,538.386475 
	C450.953827,543.626831 456.664185,547.607849 463.014587,550.607727 
	C473.809875,555.707275 482.374207,552.571594 488.028900,542.017944 
	C490.558594,537.296692 490.925568,532.164551 491.826050,527.176636 
	C493.772644,516.394165 492.683472,505.506317 492.223724,494.618073 
	C488.408752,503.614563 484.704346,512.489441 478.370941,520.806396 
M554.947998,529.620239 
	C543.956604,519.970398 538.001160,507.149841 532.729370,493.844055 
	C532.352478,502.657135 531.917969,511.321320 532.474731,519.921326 
	C533.030945,528.513123 534.417358,537.083984 539.231689,544.610291 
	C541.936584,548.838928 545.479553,552.268860 550.609009,552.603455 
	C562.704529,553.392517 570.810181,545.710632 579.247253,538.741882 
	C570.160522,538.516235 562.507141,535.204041 554.947998,529.620239 
M540.354553,450.153137 
	C548.479980,457.304352 557.682007,457.659576 565.065674,451.106995 
	C574.482117,442.750458 576.634338,425.808929 569.736877,415.329102 
	C568.058289,412.778687 566.477478,411.750305 563.761047,413.924957 
	C561.537415,415.705017 558.248657,416.453125 560.913696,420.702637 
	C564.553772,426.506897 564.505798,432.743195 560.641052,438.599976 
	C555.950989,445.707428 547.735352,445.466309 543.144165,438.238953 
	C542.100342,436.595764 542.061646,434.371674 540.269409,433.170105 
	C533.371643,438.041687 533.020691,439.702484 537.489136,446.413910 
	C538.226074,447.520752 539.083801,448.547180 540.354553,450.153137 
M490.572723,438.914642 
	C489.369476,436.276733 487.487030,434.338928 484.925354,432.988495 
	C479.073273,442.965363 474.724579,445.673828 468.987701,442.921356 
	C465.988464,441.482361 464.292450,438.810028 462.995544,435.837646 
	C460.008667,428.992126 462.346191,422.957977 466.215881,417.188171 
	C464.928619,416.274811 463.995087,415.595245 463.044281,414.940735 
	C458.089386,411.529663 457.234314,411.624146 454.566620,417.193420 
	C450.551727,425.575195 450.134216,434.145813 454.124908,442.722900 
	C458.198181,451.477386 465.410065,456.279663 473.562531,455.691162 
	C481.074341,455.148926 488.053101,448.579712 490.572723,438.914642 
M596.353088,441.715332 
	C597.847351,438.506439 597.754272,434.968872 598.358276,431.586761 
	C600.056519,422.076874 600.735840,412.515625 598.704041,402.944824 
	C598.317017,401.121521 597.855286,398.927826 595.459290,399.342590 
	C588.963745,400.467041 583.065979,403.149384 576.745544,406.584320 
	C582.331238,411.730438 587.572754,415.838440 590.640259,421.895111 
	C593.743713,428.022858 596.080078,434.333771 596.353088,441.715332 
M425.374695,423.078735 
	C426.229736,428.762543 427.084747,434.446350 427.939789,440.130188 
	C430.450531,426.325256 436.704987,415.038147 448.795593,406.856018 
	C443.030151,403.306976 437.584503,401.771881 432.332642,399.789948 
	C428.894257,398.492371 427.120117,399.639893 426.293884,403.263153 
	C424.864502,409.531464 425.375671,415.843079 425.374695,423.078735 
z"/>
<path fill="#000000" opacity="1.000000" stroke="none" 
	d="
M521.373657,755.018982 
	C518.544495,754.967224 519.126465,752.868652 518.968628,751.404968 
	C518.040771,742.802917 516.270264,734.352356 514.537720,725.893921 
	C514.377869,725.113464 513.992493,724.379211 512.767883,723.521362 
	C510.123566,734.224365 507.479309,744.927429 504.835022,755.630493 
	C504.376556,755.717163 503.918091,755.803833 503.459625,755.890503 
	C498.775116,742.455139 494.090576,729.019714 489.406067,715.584290 
	C485.773926,727.175232 486.522766,739.220520 483.704681,750.983093 
	C479.218872,750.148621 476.961975,746.900269 474.544830,744.119751 
	C468.619507,737.303467 463.908081,729.637512 459.644287,721.693542 
	C450.417511,704.503357 442.664673,686.635132 435.221802,668.624207 
	C434.783783,667.564270 434.224640,666.520752 435.092133,664.042603 
	C448.793976,685.956360 462.056305,707.167175 476.104126,729.634216 
	C480.432831,717.388367 481.462097,705.823242 486.068848,694.607666 
	C491.512604,704.903992 496.956329,715.200317 502.944855,726.527100 
	C508.412231,718.500488 509.511505,709.870117 514.052002,702.109680 
	C517.177246,707.602539 518.289795,713.109192 520.156311,718.326965 
	C521.068176,720.876038 520.942749,724.799316 524.040283,725.271667 
	C526.945312,725.714600 527.773499,721.949524 529.222961,719.872681 
	C534.274048,712.635132 539.119751,705.254395 544.059143,697.938660 
	C544.787292,696.860168 545.330750,695.556763 547.770508,695.077759 
	C549.140198,706.157471 550.503479,717.185303 551.866699,728.213196 
	C552.231445,728.330811 552.596130,728.448486 552.960876,728.566101 
	C565.226807,707.286804 577.492798,686.007507 589.758789,664.728149 
	C590.128296,664.934265 590.497864,665.140381 590.867371,665.346497 
	C581.015198,696.098083 566.798767,724.632385 546.259338,750.461853 
	C544.830261,738.516846 543.401184,726.571838 541.972107,714.626831 
	C541.634155,714.570312 541.296143,714.513794 540.958130,714.457275 
	C534.529114,727.914612 528.100159,741.371887 521.373657,755.018982 
z"/>
<path fill="#000000" opacity="1.000000" stroke="none" 
	d="
M624.347656,659.442383 
	C633.896851,630.697571 639.596924,601.618713 641.913818,571.790710 
	C643.953125,545.534668 643.099304,519.604126 635.940552,494.110229 
	C633.727112,486.227600 630.783875,478.656952 626.394043,471.676727 
	C623.729431,467.439758 625.151855,464.757080 630.273499,464.593262 
	C635.838867,464.415253 640.156067,467.062378 643.427673,471.488800 
	C650.347107,480.850739 652.318359,491.840881 653.255188,502.992126 
	C655.237000,526.581055 655.513428,550.245483 653.167786,573.794617 
	C648.565002,620.003845 636.092712,663.596130 608.370789,701.774719 
	C607.455017,703.035950 606.894897,704.782104 603.772095,705.013489 
	C612.811340,690.469788 619.075623,675.383850 624.347656,659.442383 
z"/>
<path fill="#000000" opacity="1.000000" stroke="none" 
	d="
M384.799622,589.316956 
	C389.113434,619.651184 395.879974,648.888123 407.300964,676.935913 
	C410.572571,684.970459 414.341797,692.746155 418.742462,700.224487 
	C419.555603,701.606323 420.849121,702.832947 420.723633,705.158813 
	C418.034302,704.576782 417.171509,702.302856 415.942108,700.583313 
	C395.636902,672.182617 383.615936,640.323975 376.725189,606.339478 
	C369.790894,572.140198 369.255280,537.593811 371.910767,502.985657 
	C372.613556,493.826904 374.059509,484.454224 378.732361,476.104279 
	C381.302643,471.511353 384.380463,467.446686 389.511200,465.462311 
	C392.412170,464.340332 395.317047,464.073761 398.225403,465.481323 
	C400.368103,466.518311 401.334229,467.828796 399.827087,470.190002 
	C391.706421,482.912506 387.610687,497.123260 385.151459,511.797394 
	C382.088745,530.072327 381.278290,548.493835 382.945923,566.992065 
	C383.603088,574.281616 384.110931,581.584534 384.799622,589.316956 
z"/>
<path fill="#000000" opacity="1.000000" stroke="none" 
	d="
M675.699829,777.002686 
	C675.708435,773.175598 675.935913,769.829590 675.670227,766.523254 
	C675.309448,762.035278 677.329102,760.472717 681.536011,760.871399 
	C683.020203,761.011963 684.530518,760.927795 686.026733,760.880066 
	C688.881653,760.789062 690.311523,761.961426 690.301270,764.994690 
	C690.247986,780.804016 690.235474,796.613953 690.322937,812.422974 
	C690.339661,815.449463 688.935181,816.725220 686.168213,816.729797 
	C681.518005,816.737488 676.867615,816.622559 672.217407,816.548340 
	C669.521851,816.505310 668.767883,814.397034 667.764465,812.452087 
	C662.516052,802.278503 657.215881,792.131592 651.327576,780.810120 
	C651.327576,791.434570 651.112854,800.811279 651.417908,810.171021 
	C651.571106,814.871521 650.195007,816.656433 645.278076,816.513489 
	C636.835999,816.268066 636.823547,816.542664 636.825256,808.057983 
	C636.828064,794.245422 636.953430,780.431335 636.775330,766.621155 
	C636.719543,762.297852 638.256531,760.838501 642.577942,760.790527 
	C656.872314,760.631836 656.852844,760.502197 663.561890,773.290161 
	C667.346375,780.503479 671.201294,787.679871 675.698975,796.142151 
	C675.698975,789.070923 675.698975,783.286133 675.699829,777.002686 
z"/>
<path fill="#000000" opacity="1.000000" stroke="none" 
	d="
M373.660095,767.130249 
	C373.068268,762.362183 374.799805,760.703369 379.230804,760.804199 
	C396.744781,761.202820 391.963928,758.584412 399.847321,773.178650 
	C403.952789,780.778931 407.933014,788.446838 412.306641,796.721497 
	C412.306641,787.349182 412.549500,778.643616 412.236969,769.958069 
	C411.936249,761.601501 416.402832,758.140198 424.243073,761.096313 
	C426.018829,761.765869 426.317657,763.077148 426.318115,764.641296 
	C426.322906,780.798767 426.295380,796.956299 426.333557,813.113647 
	C426.339935,815.806885 424.891907,816.525391 422.548065,816.520447 
	C418.219330,816.511414 413.888733,816.517151 409.562164,816.635071 
	C406.507385,816.718323 405.228363,814.763123 404.031464,812.419983 
	C398.812073,802.202209 393.523682,792.019775 387.348755,781.930664 
	C387.348755,790.749634 387.354004,799.568604 387.347137,808.387573 
	C387.341370,815.805481 382.622650,818.926147 375.633453,816.198975 
	C373.034607,815.184875 373.709503,812.944153 373.701355,811.087952 
	C373.637604,796.596313 373.661957,782.104248 373.660095,767.130249 
z"/>
<path fill="#000000" opacity="1.000000" stroke="none" 
	d="
M312.868225,775.205688 
	C318.889221,760.914429 331.637482,758.725525 345.835388,761.141357 
	C356.994080,763.040039 364.040710,772.845703 364.306793,785.692078 
	C364.389099,789.664062 364.550354,793.621765 363.611328,797.589294 
	C360.229156,811.879395 350.332458,818.564941 334.161499,817.264954 
	C320.809509,816.191467 311.796631,807.246826 310.795929,793.751221 
	C310.341125,787.617981 310.265015,781.438049 312.868225,775.205688 
M347.714233,784.911804 
	C347.830139,782.507019 347.082947,780.318665 345.957184,778.252136 
	C344.094940,774.833679 341.014038,773.325928 337.295135,773.450806 
	C333.572449,773.576050 330.418701,775.237793 328.996643,778.837402 
	C326.532166,785.075623 326.399384,791.548523 328.662750,797.833008 
	C330.150665,801.964539 333.465912,804.057434 338.027161,803.806519 
	C342.467712,803.562256 345.488739,801.564270 346.917480,797.169739 
	C348.138702,793.413452 347.571167,789.598145 347.714233,784.911804 
z"/>
<path fill="#000000" opacity="1.000000" stroke="none" 
	d="
M512.721069,771.043518 
	C512.829712,760.430664 511.388336,760.950806 522.452271,760.887451 
	C527.267944,760.859924 532.063965,760.793823 536.884460,761.451721 
	C551.673523,763.470093 559.351562,771.184631 559.926331,786.044800 
	C560.653687,804.848633 550.275696,816.090332 532.716431,816.386169 
	C528.064575,816.464539 523.409485,816.627075 518.767334,816.927368 
	C514.386475,817.210693 512.548279,815.697266 512.647705,810.951538 
	C512.922913,797.818054 512.729187,784.674744 512.721069,771.043518 
M537.451233,802.189331 
	C543.215210,798.124451 545.330750,789.871704 542.717957,781.643494 
	C541.049011,776.387756 537.256897,773.929199 531.813538,774.226501 
	C529.490234,774.353333 528.472717,775.298218 528.467773,777.528687 
	C528.451050,785.160339 528.423401,792.792053 528.419983,800.423706 
	C528.418823,803.121399 530.021606,803.859741 532.380371,803.460632 
	C533.850098,803.211853 535.294556,802.813782 537.451233,802.189331 
z"/>
<path fill="#000000" opacity="1.000000" stroke="none" 
	d="
M735.981201,783.680420 
	C748.019287,783.812134 747.268494,782.211182 747.281189,794.355591 
	C747.286560,799.518188 747.230774,804.681213 747.279175,809.843262 
	C747.301270,812.203369 746.854248,814.213684 744.234070,814.872498 
	C736.118286,816.913025 727.906860,818.322571 719.549316,816.826294 
	C702.965576,813.857178 696.893250,799.702454 699.082275,783.839600 
	C701.167664,768.728210 710.215515,761.236450 725.530579,760.596863 
	C730.712585,760.380554 735.823853,760.706726 740.884399,761.975220 
	C744.702026,762.932129 746.549866,764.668762 744.299988,768.643311 
	C743.974426,769.218262 743.686157,769.848450 743.546997,770.489258 
	C742.554504,775.057495 740.107910,776.551697 735.622742,774.629211 
	C733.977478,773.924011 732.072754,773.748352 730.262573,773.516907 
	C721.941711,772.452637 715.832458,777.477600 715.356384,785.810425 
	C715.214172,788.299744 715.210144,790.813904 715.377991,793.300842 
	C715.890747,800.897827 722.442139,805.669983 729.804871,803.720337 
	C734.078857,802.588623 731.717529,799.312866 732.061646,796.729858 
	C731.118774,796.536255 730.488892,796.333435 729.847534,796.286499 
	C722.927979,795.780334 721.021118,792.948853 722.750977,786.070374 
	C723.230835,784.161926 724.394653,783.755676 725.995361,783.735962 
	C729.159058,783.696960 732.323181,783.696838 735.981201,783.680420 
z"/>
<path fill="#000000" opacity="1.000000" stroke="none" 
	d="
M466.499268,760.798401 
	C469.163361,760.939575 470.029663,762.456299 470.634705,764.306458 
	C476.004089,780.725464 481.392395,797.138184 486.746002,813.562317 
	C486.936493,814.146729 486.823883,814.829956 486.858612,815.601501 
	C482.119171,817.868042 477.257965,816.371277 472.551636,816.441711 
	C470.090607,816.478516 469.696991,813.865845 469.355835,811.959473 
	C468.573883,807.589844 466.263702,805.652039 461.759613,806.332092 
	C460.133453,806.577637 458.417358,806.548889 456.780792,806.341614 
	C452.579712,805.809753 449.978729,807.352844 449.509827,811.700745 
	C449.070892,815.770569 446.741089,816.976807 442.972931,816.494934 
	C439.406494,816.039001 435.693634,817.094727 432.348083,815.690186 
	C431.450653,813.944336 432.205261,812.564392 432.662964,811.158936 
	C437.652344,795.837952 442.724396,780.543030 447.571106,765.177063 
	C448.588684,761.950928 450.138702,760.512146 453.582642,760.706909 
	C457.727142,760.941223 461.894653,760.769226 466.499268,760.798401 
M459.569305,793.030884 
	C461.874115,792.915100 464.209076,792.717163 463.379395,789.421204 
	C462.236511,784.881104 460.946228,780.378113 459.719055,775.859253 
	C457.710724,780.268127 456.599426,784.595032 455.414673,788.901733 
	C454.582031,791.928528 455.550659,793.384216 459.569305,793.030884 
z"/>
<path fill="#000000" opacity="1.000000" stroke="none" 
	d="
M271.003662,816.466309 
	C267.837158,815.890869 264.006470,818.389832 262.506989,814.679077 
	C261.030640,811.025635 261.937714,807.206665 264.375183,803.829895 
	C270.122620,795.867859 275.781555,787.840942 281.387909,779.778687 
	C282.382172,778.348938 283.964569,777.108337 283.726624,774.698914 
	C279.184540,773.824951 274.561371,774.364502 269.982117,774.284302 
	C262.960449,774.161377 262.831970,774.109192 262.852783,767.438599 
	C262.873108,760.924133 262.902466,760.892273 270.211975,760.890808 
	C279.202271,760.888916 288.194092,760.806091 297.181885,760.958557 
	C299.836182,761.003601 303.582886,759.551270 304.793396,762.849182 
	C306.017181,766.183289 305.973816,769.984680 303.552216,773.322144 
	C298.665741,780.056580 293.928741,786.899902 289.165497,793.723022 
	C287.095856,796.687805 285.113739,799.713623 282.420410,803.707520 
	C289.168091,803.707520 294.911530,803.925781 300.629333,803.636658 
	C304.987213,803.416260 306.091827,805.426758 305.994629,809.298706 
	C305.900848,813.032959 306.645325,816.876648 300.883240,816.827332 
	C291.065796,816.743286 281.242645,817.242493 271.003662,816.466309 
z"/>
<path fill="#000000" opacity="1.000000" stroke="none" 
	d="
M616.273804,803.679565 
	C617.896301,803.684326 619.060486,803.687317 620.224731,803.687866 
	C628.557007,803.691895 630.207092,805.883240 628.319580,814.059265 
	C627.873047,815.993286 626.716003,816.330688 625.123657,816.449036 
	C616.653320,817.078247 608.174622,816.917603 599.694214,816.778137 
	C596.428711,816.724426 594.927429,815.296265 594.950134,811.888916 
	C595.052002,796.588379 595.057678,781.286926 595.010071,765.986023 
	C594.999084,762.470703 596.341309,760.815796 600.017212,760.872803 
	C607.998474,760.996582 615.983643,760.969788 623.965881,760.879028 
	C627.366699,760.840393 628.921936,762.170471 628.482727,765.667419 
	C628.297180,767.144958 628.287598,768.662292 628.369934,770.151978 
	C628.539001,773.210205 627.004395,774.303955 624.138794,774.234436 
	C620.980835,774.157715 617.817993,774.286804 614.659790,774.215942 
	C612.041565,774.157227 611.186157,775.475403 611.175598,777.914001 
	C611.164978,780.368530 612.045105,781.668640 614.653076,781.615540 
	C617.478760,781.557922 620.309265,781.712280 623.133972,781.635742 
	C626.037720,781.557129 627.221313,782.754761 627.372742,785.750793 
	C627.791748,794.040771 627.624573,794.184875 619.091980,794.408997 
	C615.787842,794.495728 610.882507,792.340698 611.077148,799.128235 
	C611.177185,802.615112 612.413391,804.052368 616.273804,803.679565 
z"/>
<path fill="#000000" opacity="1.000000" stroke="none" 
	d="
M568.656799,792.999878 
	C568.662048,783.687744 568.779724,774.873596 568.619019,766.064453 
	C568.554871,762.546387 569.642944,760.996277 573.373535,760.823975 
	C584.340942,760.317383 584.321533,760.193054 584.308899,771.290833 
	C584.294006,784.425964 584.165039,797.563416 584.387268,810.694824 
	C584.458984,814.936523 583.329834,816.641418 578.807129,816.502258 
	C567.078308,816.141357 568.833069,817.839783 568.664673,806.468567 
	C568.600647,802.146606 568.656372,797.822815 568.656799,792.999878 
z"/>
<path fill="#000000" opacity="1.000000" stroke="none" 
	d="
M535.265015,849.798767 
	C534.983582,851.523865 534.840820,852.860413 534.407898,854.095337 
	C533.125916,857.752625 530.588623,860.120117 526.605286,859.773865 
	C522.560425,859.422302 520.665344,856.322327 519.900513,852.722839 
	C519.460022,850.649902 519.629456,848.419250 519.718018,846.267639 
	C519.925171,841.230164 522.818054,837.839355 526.918701,837.655151 
	C531.142578,837.465393 534.322083,840.420837 535.102661,845.386902 
	C535.307373,846.689209 535.222900,848.036926 535.265015,849.798767 
M524.471069,854.791443 
	C526.117493,856.377136 528.077759,856.838623 529.777893,855.261719 
	C533.040161,852.236023 531.870789,848.237061 531.499268,844.553162 
	C531.305298,842.629639 529.860107,841.197815 527.894897,840.964294 
	C525.322327,840.658508 523.928162,842.368225 523.382751,844.620056 
	C522.598083,847.859802 522.350281,851.135437 524.471069,854.791443 
z"/>
<path fill="#000000" opacity="1.000000" stroke="none" 
	d="
M550.306091,843.391418 
	C551.451477,837.353271 556.131836,835.804199 562.328430,839.161194 
	C560.710754,842.905273 554.699951,838.760315 553.616821,844.153809 
	C558.888428,844.854614 564.090942,845.991943 563.843201,852.559143 
	C563.702148,856.296204 561.474487,859.215027 557.373047,859.720276 
	C553.713135,860.171204 550.548279,859.313904 548.951477,855.425049 
	C550.957947,853.962036 552.331177,855.566650 553.769165,856.030029 
	C556.115112,856.786011 558.036438,856.484131 559.637695,854.630676 
	C560.729614,853.366943 560.904358,851.921692 560.011719,850.471313 
	C558.797729,848.498718 556.870667,847.907532 554.799377,848.472351 
	C550.308472,849.697021 549.318054,847.739502 550.306091,843.391418 
z"/>
<path fill="#000000" opacity="1.000000" stroke="none" 
	d="
M511.222443,841.930359 
	C509.617859,840.354675 508.163666,839.958252 506.709900,841.563416 
	C505.654388,842.728882 505.079590,844.549683 502.700867,844.280884 
	C501.544708,840.987549 503.739441,839.253601 505.967407,838.086853 
	C508.445129,836.789246 511.264343,837.113159 513.425476,839.023804 
	C515.840942,841.159363 515.863953,844.028442 514.763672,846.832031 
	C513.468445,850.132568 510.210297,852.017822 508.359497,855.077759 
	C510.473724,857.121704 514.239197,854.695496 516.060791,858.574707 
	C511.088104,860.056030 506.400330,859.366699 501.143982,859.016357 
	C502.616608,854.896484 505.874115,853.176025 507.898499,850.495300 
	C509.770844,848.016052 512.452759,845.922546 511.222443,841.930359 
z"/>
<path fill="#000000" opacity="1.000000" stroke="none" 
	d="
M449.074219,845.258362 
	C449.735718,837.204224 452.908142,835.595825 461.296509,838.841553 
	C460.038910,841.198975 457.827240,840.267212 456.098969,840.378418 
	C453.727509,840.531006 452.346313,841.327148 452.386322,843.936096 
	C452.424713,846.437012 453.972168,846.896790 456.004395,846.992065 
	C457.557587,847.064880 459.371979,846.644470 460.240143,848.546753 
	C459.370514,850.833801 457.470093,850.217285 455.936218,850.266174 
	C453.866058,850.332214 452.317352,850.742859 452.377350,853.276550 
	C452.442780,856.039001 454.126221,856.525635 456.411896,856.315308 
	C458.314209,856.140198 460.326233,855.707153 461.841553,858.196167 
	C458.228333,859.995972 454.686737,859.850220 451.178284,859.252930 
	C449.364929,858.944275 449.214813,857.179077 449.174377,855.671021 
	C449.085602,852.356628 449.088287,849.039917 449.074219,845.258362 
z"/>
<path fill="#000000" opacity="1.000000" stroke="none" 
	d="
M481.407715,843.336060 
	C482.145905,844.839661 484.148102,844.576843 484.251678,846.276917 
	C479.836517,850.476074 480.100830,853.788635 484.318787,858.707703 
	C480.932922,860.328125 478.843079,859.238525 477.950775,855.964111 
	C477.070068,852.732300 478.356140,849.121826 475.926239,845.942993 
	C475.582581,845.493286 477.435181,841.164551 478.647339,838.815979 
	C481.723450,839.116577 480.716034,841.517334 481.407715,843.336060 
z"/>
<path fill="#000000" opacity="1.000000" stroke="none" 
	d="
M469.003296,844.710938 
	C470.947388,844.765198 472.342041,845.043213 472.846008,846.420959 
	C472.462219,848.856934 469.988007,847.454956 469.208069,849.232666 
	C470.980988,851.980591 477.261932,853.800232 472.608856,858.357605 
	C470.491302,860.431702 466.789368,860.340332 464.935577,856.597351 
	C466.623566,854.690735 468.602783,856.967957 470.480530,855.702637 
	C469.678162,852.208862 463.042328,852.168762 465.104950,847.098938 
	C465.729736,845.563171 466.958282,844.826050 469.003296,844.710938 
z"/>
<path fill="#000000" opacity="1.000000" stroke="none" 
	d="
M544.537659,858.006653 
	C541.735413,859.846497 541.510132,858.012390 541.481079,856.217224 
	C541.440857,853.729553 541.516479,851.236328 541.642944,848.750549 
	C541.829468,845.083374 541.804321,841.511597 538.240845,839.058167 
	C543.156189,836.831726 544.728821,837.532959 544.911072,842.237976 
	C545.109680,847.364624 544.818542,852.510376 544.537659,858.006653 
z"/>
</svg>